<?xml version="1.0" standalone="no"?>
<!DOCTYPE svg PUBLIC "-//W3C//DTD SVG 20010904//EN"
 "http://www.w3.org/TR/2001/REC-SVG-20010904/DTD/svg10.dtd">
<svg version="1.0" xmlns="http://www.w3.org/2000/svg"
 width="355.000000pt" height="344.000000pt" viewBox="0 0 355.000000 344.000000"
 preserveAspectRatio="xMidYMid meet">

<g transform="translate(0.000000,344.000000) scale(0.100000,-0.100000)"
fill="#000000" stroke="none">
<path d="M0 1720 l0 -1720 1775 0 1775 0 0 1720 0 1720 -1775 0 -1775 0 0
-1720z m670 1398 c0 -4 -4 -8 -9 -8 -5 0 -18 -3 -28 -7 -15 -6 -16 -4 -6 8 13
17 43 21 43 7z m2151 -16 c-16 -5 -41 5 -41 17 0 7 10 6 26 -1 15 -7 21 -14
15 -16z m117 -35 c14 -15 9 -15 -33 4 -65 28 -78 41 -26 25 22 -6 49 -20 59
-29z m-2368 25 c0 -5 -7 -9 -15 -9 -8 0 -12 4 -9 9 3 4 9 8 15 8 5 0 9 -4 9
-8z m-95 -52 c-16 -16 -31 -28 -33 -25 -4 4 48 54 57 55 3 0 -8 -13 -24 -30z
m2519 -16 c3 -8 2 -12 -4 -9 -6 3 -10 10 -10 16 0 14 7 11 14 -7z m-2586 -53
c-12 -15 -29 -37 -36 -47 -7 -11 -3 0 9 24 13 23 26 42 31 42 4 0 8 8 9 18 0
10 3 12 6 4 2 -6 -6 -25 -19 -41z m2623 12 c13 -16 12 -17 -3 -4 -17 13 -22
21 -14 21 2 0 10 -8 17 -17z m-2675 -98 c-3 -20 -16 -31 -16 -13 0 13 8 28 16
28 1 0 1 -7 0 -15z m2740 -11 c1 -9 0 -13 -4 -10 -3 4 -7 14 -8 22 -1 9 0 13
4 10 3 -4 7 -14 8 -22z m-2146 -6 c0 -6 -6 -5 -15 2 -8 7 -15 14 -15 16 0 2 7
1 15 -2 8 -4 15 -11 15 -16z m-114 0 c4 -7 4 -10 -1 -6 -4 4 -15 2 -24 -5 -14
-11 -14 -10 -2 6 16 20 18 21 27 5z m-502 -65 c-3 -16 -10 -32 -15 -38 -7 -6
-7 0 0 18 6 15 8 27 5 27 -3 0 -2 5 1 10 11 17 14 11 9 -17z m683 -28 c0 -8
-4 -12 -9 -9 -5 4 -7 9 -4 12 3 3 -2 15 -11 26 -18 21 -18 21 3 3 11 -9 21
-24 21 -32z m2097 29 c3 -8 2 -12 -4 -9 -6 3 -10 10 -10 16 0 14 7 11 14 -7z
m7 -469 c0 -230 -3 -420 -6 -423 -3 -3 -5 187 -5 423 0 236 2 426 6 423 3 -3
5 -194 5 -423z m-2053 374 c8 -12 11 -24 8 -27 -3 -3 -6 0 -6 7 0 7 -5 9 -12
5 -7 -4 -10 -3 -5 1 4 5 -1 17 -10 27 -13 14 -13 18 -2 13 8 -3 20 -15 27 -26z
m302 11 c0 -5 -6 -9 -12 -7 -7 1 -12 -3 -11 -10 2 -7 -4 -10 -12 -7 -8 4 -15
1 -15 -6 0 -6 -4 -9 -9 -5 -14 8 -33 -31 -29 -58 4 -29 21 -46 50 -51 13 -3
25 -5 28 -6 19 -7 550 -3 550 4 0 4 7 6 15 2 8 -3 15 -1 15 5 0 6 5 7 10 4 6
-3 10 0 11 7 0 7 2 23 5 36 5 26 -13 65 -25 57 -10 -6 -36 23 -28 31 10 10 47
-17 62 -46 17 -33 20 -70 5 -70 -5 0 -10 -6 -10 -14 0 -30 -67 -38 -343 -39
-150 0 -283 3 -297 8 -76 24 -80 128 -8 160 40 17 48 18 48 5z m-501 -77 c-12
-21 -27 -42 -32 -48 -11 -11 9 29 31 63 24 37 25 25 1 -15z m240 -17 c-2 -2
-13 8 -23 22 l-19 27 24 -22 c12 -12 21 -24 18 -27z m-201 9 c-3 -3 -9 2 -12
12 -6 14 -5 15 5 6 7 -7 10 -15 7 -18z m-228 11 c0 -3 -4 -8 -10 -11 -5 -3
-10 -1 -10 4 0 6 5 11 10 11 6 0 10 -2 10 -4z m-24 -46 c0 -12 -4 -16 -9 -11
-5 5 -6 14 -3 20 10 15 12 14 12 -9z m274 5 c0 -8 -2 -15 -4 -15 -2 0 -6 7
-10 15 -3 8 -1 15 4 15 6 0 10 -7 10 -15z m195 -5 c3 -5 1 -10 -4 -10 -6 0
-11 5 -11 10 0 6 2 10 4 10 3 0 8 -4 11 -10z m1735 -11 c0 -4 -10 -6 -21 -4
-32 6 -34 13 -4 13 14 0 25 -4 25 -9z m-2037 -24 c-3 -9 -8 -14 -10 -11 -3 3
-2 9 2 15 9 16 15 13 8 -4z m133 -11 c1 -9 0 -13 -4 -10 -3 4 -7 14 -8 22 -1
9 0 13 4 10 3 -4 7 -14 8 -22z m1801 13 c0 -8 -6 -14 -14 -14 -9 0 -10 4 -2
14 6 7 12 13 14 13 1 0 2 -6 2 -13z m-1607 -17 c0 -5 -2 -10 -4 -10 -3 0 -8 5
-11 10 -3 6 -1 10 4 10 6 0 11 -4 11 -10z m1760 -10 c6 -11 9 -20 8 -20 -2 0
-11 9 -21 20 -9 11 -13 20 -7 20 5 0 14 -9 20 -20z m-2105 -10 c3 -5 1 -10 -4
-10 -6 0 -11 5 -11 10 0 6 2 10 4 10 3 0 8 -4 11 -10z m169 -16 c3 -8 2 -12
-4 -9 -6 3 -10 10 -10 16 0 14 7 11 14 -7z m195 -15 c9 -27 9 -30 -4 -19 -9 7
-13 15 -10 18 3 3 0 11 -6 19 -7 8 -8 13 -1 13 5 0 15 -14 21 -31z m1776 -9
c3 -5 1 -10 -4 -10 -6 0 -11 5 -11 10 0 6 2 10 4 10 3 0 8 -4 11 -10z m-2162
-11 c-6 -6 -9 -18 -6 -25 3 -8 0 -14 -6 -14 -6 0 -11 6 -11 13 0 13 19 37 29
37 3 0 0 -5 -6 -11z m217 -24 c0 -5 -5 -3 -10 5 -5 8 -10 20 -10 25 0 6 5 3
10 -5 5 -8 10 -19 10 -25z m1675 -5 c3 -5 1 -10 -4 -10 -6 0 -11 5 -11 10 0 6
2 10 4 10 3 0 8 -4 11 -10z m-2098 -42 c-3 -7 -5 -2 -5 12 0 14 2 19 5 13 2
-7 2 -19 0 -25z m443 -8 c5 -19 6 -29 1 -24 -10 10 -26 72 -17 63 4 -4 11 -21
16 -39z m179 7 c0 -21 -1 -21 -9 -2 -12 28 -12 37 0 30 6 -3 10 -16 9 -28z
m-449 -17 c-6 -11 -13 -20 -16 -20 -2 0 0 9 6 20 6 11 13 20 16 20 2 0 0 -9
-6 -20z m466 -42 c11 -53 16 -92 11 -88 -3 3 -9 21 -12 40 -4 19 -8 40 -9 45
-1 6 -5 17 -10 25 -7 12 -6 13 4 3 8 -7 15 -18 16 -25z m1411 3 c0 -11 -5 -18
-9 -15 -4 3 -5 11 -1 19 7 21 12 19 10 -4z m186 -1 c-5 -19 -23 -39 -23 -25 0
9 20 45 24 45 2 0 2 -9 -1 -20z m205 -5 c-3 -3 -9 2 -12 12 -6 14 -5 15 5 6 7
-7 10 -15 7 -18z m-2281 0 c0 -8 -4 -15 -9 -15 -10 0 -11 14 -1 23 9 10 10 9
10 -8z m317 -45 c10 -13 9 -13 -6 -1 -10 7 -18 21 -17 30 0 13 1 14 6 1 3 -8
11 -22 17 -30z m1796 10 c6 -11 8 -20 6 -20 -3 0 -10 9 -16 20 -6 11 -8 20 -6
20 3 0 10 -9 16 -20z m190 -15 c0 -5 -5 -3 -10 5 -5 8 -10 20 -10 25 0 6 5 3
10 -5 5 -8 10 -19 10 -25z m-2310 10 c0 -8 -4 -15 -10 -15 -5 0 -7 7 -4 15 4
8 8 15 10 15 2 0 4 -7 4 -15z m1871 -8 c-10 -9 -11 -8 -5 6 3 10 9 15 12 12 3
-3 0 -11 -7 -18z m179 -15 c0 -5 -7 -17 -15 -28 -14 -18 -14 -17 -4 9 12 27
19 34 19 19z m-2066 -26 c-3 -13 -7 -39 -8 -57 -2 -19 -4 -42 -5 -51 0 -10 -6
-18 -12 -18 -5 0 -8 3 -6 8 3 4 8 30 11 57 7 55 15 85 22 85 2 0 2 -11 -2 -24z
m2336 14 c0 -5 -2 -10 -4 -10 -3 0 -8 5 -11 10 -3 6 -1 10 4 10 6 0 11 -4 11
-10z m-1981 -43 c1 -5 -3 -5 -9 -2 -5 3 -10 16 -9 28 0 21 1 21 9 2 5 -11 9
-24 9 -28z m-523 11 c4 -6 3 -8 -3 -5 -6 4 -11 -15 -12 -50 -2 -77 -11 -81
-11 -6 0 67 9 89 26 61z m2337 -8 c3 -11 1 -18 -4 -14 -5 3 -9 12 -9 20 0 20
7 17 13 -6z m177 10 c0 -5 -2 -10 -4 -10 -3 0 -8 5 -11 10 -3 6 -1 10 4 10 6
0 11 -4 11 -10z m-1822 -35 c-3 -3 -9 2 -12 12 -6 14 -5 15 5 6 7 -7 10 -15 7
-18z m1518 10 c-3 -20 -16 -31 -16 -13 0 13 8 28 16 28 1 0 1 -7 0 -15z m312
-20 c-3 -3 -9 2 -12 12 -6 14 -5 15 5 6 7 -7 10 -15 7 -18z m-1993 -30 c0 -14
-3 -25 -7 -25 -5 0 -7 13 -6 30 3 34 11 31 13 -5z m703 21 c-7 -8 -15 -12 -17
-11 -5 6 10 25 20 25 5 0 4 -6 -3 -14z m263 -3 c13 -17 13 -17 -6 -3 -11 8
-22 16 -24 17 -2 2 0 3 6 3 6 0 17 -8 24 -17z m535 -2 c0 -11 -4 -17 -8 -15
-4 3 -8 12 -8 20 0 8 4 14 8 14 4 0 8 -9 8 -19z m-1328 -47 l-3 -39 -5 47 c-3
26 -1 43 3 39 5 -5 7 -26 5 -47z m482 42 c0 -9 -30 -14 -35 -6 -4 6 3 10 14
10 12 0 21 -2 21 -4z m380 -5 c0 -4 -11 -6 -25 -3 -14 2 -25 6 -25 8 0 2 11 4
25 4 14 0 25 -4 25 -9z m628 -26 c0 -19 -4 -37 -8 -40 -5 -3 -7 7 -6 22 2 16
4 34 5 41 2 26 9 10 9 -23z m165 10 c-7 -21 -12 -19 -10 4 0 11 5 18 9 15 4
-3 5 -11 1 -19z m-339 -34 c1 -16 -2 -27 -6 -24 -5 2 -8 18 -8 35 0 39 13 29
14 -11z m-389 19 c3 -5 1 -10 -4 -10 -6 0 -11 5 -11 10 0 6 2 10 4 10 3 0 8
-4 11 -10z m-1225 -42 c0 -5 -7 -3 -15 6 -8 8 -15 18 -15 22 0 3 7 1 15 -6 8
-7 15 -17 15 -22z m134 -53 c1 -37 -1 -68 -4 -70 -4 -2 -6 24 -5 58 0 34 -3
71 -8 82 -8 16 -7 18 3 8 8 -7 14 -39 14 -78z m1830 48 c-1 -15 3 -34 9 -41 7
-9 6 -11 -7 -6 -12 5 -16 17 -14 45 1 21 5 36 8 34 3 -2 5 -16 4 -32z m174
-79 c0 -58 -2 -103 -6 -99 -9 9 -11 215 -2 210 4 -2 7 -52 8 -111z m-2561 74
c-3 -8 -6 -5 -6 6 -1 11 2 17 5 13 3 -3 4 -12 1 -19z m1043 12 c0 -5 -2 -10
-4 -10 -3 0 -8 5 -11 10 -3 6 -1 10 4 10 6 0 11 -4 11 -10z m675 0 c3 -6 -1
-7 -9 -4 -18 7 -21 14 -7 14 6 0 13 -4 16 -10z m35 -25 c11 -13 10 -14 -4 -9
-9 3 -16 10 -16 15 0 13 6 11 20 -6z m-1752 -42 c0 -29 -2 -33 -10 -20 -8 15
-3 57 7 57 2 0 3 -17 3 -37z m1856 -62 c-4 -4 -84 80 -84 89 0 3 20 -15 44
-40 24 -25 42 -47 40 -49z m-1580 10 c1 -29 0 -54 -3 -56 -4 -2 -7 24 -8 57
-2 73 6 72 11 -1z m1016 39 c-20 -13 -30 -12 -30 1 0 5 4 8 9 4 5 -3 13 0 16
6 4 5 10 8 13 4 4 -3 0 -10 -8 -15z m47 14 c-3 -3 -12 -4 -19 -1 -8 3 -5 6 6
6 11 1 17 -2 13 -5z m71 -1 c-10 -2 -28 -2 -40 0 -13 2 -5 4 17 4 22 1 32 -1
23 -4z m58 -8 c25 -13 26 -15 8 -15 -12 0 -27 7 -34 15 -16 19 -10 19 26 0z
m551 -47 c-2 -13 -4 -3 -4 22 0 25 2 35 4 23 2 -13 2 -33 0 -45z m-768 38 c-2
-2 -21 -11 -41 -19 -31 -13 -36 -13 -31 -1 3 8 9 12 13 9 5 -3 11 -2 14 3 2 4
14 8 26 9 12 1 21 0 19 -1z m291 -17 c0 -4 -7 -6 -15 -3 -8 4 -15 10 -15 15 0
4 7 6 15 3 8 -4 15 -10 15 -15z m24 -5 c3 -8 2 -12 -4 -9 -6 3 -10 10 -10 16
0 14 7 11 14 -7z m826 1 c11 -13 10 -14 -4 -9 -9 3 -16 10 -16 15 0 13 6 11
20 -6z m-1236 -20 c-7 -16 -24 -21 -24 -6 0 8 7 13 27 20 1 1 0 -6 -3 -14z
m451 -5 c3 -5 1 -10 -4 -10 -6 0 -11 5 -11 10 0 6 2 10 4 10 3 0 8 -4 11 -10z
m-1775 -6 c0 -8 -19 -13 -24 -6 -3 5 1 9 9 9 8 0 15 -2 15 -3z m882 -46 c-6
-6 -7 0 -4 19 5 21 7 23 10 9 2 -10 0 -22 -6 -28z m1493 3 c4 -15 3 -21 -3
-17 -5 3 -12 17 -15 32 -5 30 8 20 18 -15z m-2027 -11 c-1 -38 -18 -28 -18 11
0 17 4 28 9 24 5 -3 9 -19 9 -35z m910 19 c-9 -5 -24 -16 -32 -24 -8 -8 -18
-15 -23 -15 -4 0 7 14 26 30 19 17 37 28 40 24 3 -3 -2 -10 -11 -15z m586 -18
c-6 -6 -34 20 -34 32 0 6 8 2 19 -9 10 -10 17 -21 15 -23z m216 14 c14 -19 14
-19 -2 -6 -10 7 -18 18 -18 24 0 6 1 8 3 6 1 -2 9 -13 17 -24z m493 10 c-3 -9
-8 -14 -10 -11 -3 3 -2 9 2 15 9 16 15 13 8 -4z m-351 -25 c3 -16 1 -30 -4
-30 -4 0 -8 14 -8 30 0 17 2 30 4 30 2 0 6 -13 8 -30z m-1492 -11 c-5 -18 -12
-34 -16 -38 -4 -3 -4 2 -1 12 4 10 7 27 7 38 0 10 4 19 9 19 6 0 6 -12 1 -31z
m-265 -29 c0 -21 -3 -41 -6 -44 -4 -5 -4 73 0 82 5 9 7 -4 6 -38z m1429 24 c3
-8 2 -12 -4 -9 -6 3 -10 10 -10 16 0 14 7 11 14 -7z m-691 -36 c-21 -23 -56
-88 -67 -122 -4 -10 -9 -16 -12 -13 -12 12 72 157 90 157 5 0 0 -10 -11 -22z
m714 15 c-4 -4 5 -20 20 -37 l28 -31 -32 29 c-28 25 -35 46 -16 46 4 0 3 -3 0
-7z m595 -12 c4 -3 -12 -5 -35 -3 -23 2 -45 7 -49 11 -4 3 12 5 35 3 23 -2 45
-7 49 -11z m-388 -7 c3 -8 2 -12 -4 -9 -6 3 -10 10 -10 16 0 14 7 11 14 -7z
m-1239 -31 c-3 -16 -11 -32 -16 -38 -7 -6 -6 0 0 18 6 15 8 27 5 27 -3 0 -2 5
1 10 12 19 17 10 10 -17z m-465 -22 c13 -11 12 -12 -6 -3 -12 7 -24 19 -28 29
-5 16 -4 16 7 3 7 -8 19 -21 27 -29z m-439 -14 c-10 -9 -11 -8 -5 6 3 10 9 15
12 12 3 -3 0 -11 -7 -18z m233 12 c3 -3 -11 -6 -30 -7 -20 -2 -33 1 -30 6 6 9
51 10 60 1z m252 -1 c4 -7 3 -8 -4 -4 -7 4 -12 2 -12 -5 0 -7 -3 -10 -6 -6 -6
5 3 27 11 27 2 0 7 -5 11 -12z m1801 -3 c0 -8 -4 -12 -9 -9 -5 3 -6 10 -3 15
9 13 12 11 12 -6z m-1601 -7 c4 -7 4 -10 -1 -6 -4 4 -14 3 -21 -3 -8 -7 -14
-6 -20 2 -4 7 -3 9 4 5 6 -3 13 -2 17 4 8 13 12 13 21 -2z m1498 -30 c3 -17 4
-33 1 -36 -3 -3 -5 1 -5 9 0 8 -6 26 -14 41 -11 21 -11 26 -1 22 7 -3 16 -19
19 -36z m-1923 5 c13 -16 12 -17 -3 -4 -10 7 -18 15 -18 17 0 8 8 3 21 -13z
m721 -10 c-3 -16 -7 -22 -10 -15 -4 13 4 42 11 42 2 0 2 -12 -1 -27z m-105 2
c0 -8 -4 -12 -9 -9 -5 3 -6 10 -3 15 9 13 12 11 12 -6z m1128 5 c3 -5 1 -10
-4 -10 -6 0 -11 5 -11 10 0 6 2 10 4 10 3 0 8 -4 11 -10z m302 -12 c-3 -8 -6
-5 -6 6 -1 11 2 17 5 13 3 -3 4 -12 1 -19z m-2007 -40 c0 -12 -6 -9 -26 13
-19 22 -19 22 4 8 12 -8 22 -17 22 -21z m624 6 c7 -19 2 -18 -19 6 -16 17 -16
20 -3 15 9 -4 19 -13 22 -21z m1801 16 c3 -6 -4 -10 -17 -10 -18 0 -20 2 -8
10 19 12 18 12 25 0z m-45 -9 c0 -5 -10 -11 -22 -14 -22 -6 -22 -6 -4 8 23 17
26 18 26 6z m123 -374 c1 -206 -1 -373 -5 -370 -5 2 -8 173 -8 380 0 207 2
374 5 371 3 -3 7 -174 8 -381z m-1839 358 c-4 -8 -11 -12 -16 -9 -6 4 -5 10 3
15 19 12 19 11 13 -6z m1250 -7 c-3 -4 -11 -5 -19 -1 -21 7 -19 12 4 10 11 0
18 -5 15 -9z m387 -7 c-10 -6 -13 -35 -13 -110 0 -56 -3 -103 -7 -105 -8 -6
-6 198 3 213 4 6 13 11 19 11 8 0 7 -3 -2 -9z m-1469 -32 c-5 -13 -8 -32 -6
-42 1 -9 -2 -15 -6 -12 -9 5 -7 28 5 67 4 11 9 18 11 15 3 -2 1 -15 -4 -28z
m903 -18 c2 -23 1 -39 -4 -37 -4 3 -8 24 -9 47 -2 53 7 46 13 -10z m-1666 6
c0 -9 -2 -8 -6 1 -2 6 -10 9 -15 6 -7 -4 -8 -2 -4 5 9 13 26 5 25 -12z m109
-48 c13 -21 13 -22 -1 -6 -8 9 -24 17 -36 17 -11 0 -21 4 -21 10 0 19 44 3 58
-21z m227 20 c-4 -5 -18 -9 -33 -9 -17 0 -22 3 -15 8 18 11 54 12 48 1z m55
-1 c0 -4 -4 -8 -9 -8 -6 0 -12 4 -15 8 -3 5 1 9 9 9 8 0 15 -4 15 -9z m1663
-16 c-5 -11 -7 -11 -14 0 -7 11 -11 10 -19 -2 -5 -8 -10 -10 -10 -4 0 16 10
23 30 21 11 -1 16 -7 13 -15z m-1592 -19 c15 -15 -8 -12 -36 5 -19 11 -19 12
3 9 12 -2 27 -8 33 -14z m1159 2 c-7 -9 -15 -13 -18 -10 -3 3 -12 -1 -20 -8
-13 -10 -14 -9 -8 1 4 7 18 17 30 22 29 12 30 12 16 -5z m364 0 c-10 -8 -23
-14 -29 -14 -5 0 -1 6 9 14 11 8 24 15 30 15 5 0 1 -7 -10 -15z m-1199 -5 c3
-6 -1 -7 -9 -4 -18 7 -21 14 -7 14 6 0 13 -4 16 -10z m1262 -22 c-3 -8 -6 -5
-6 6 -1 11 2 17 5 13 3 -3 4 -12 1 -19z m-1934 -3 c4 -8 3 -16 -1 -19 -4 -3
-9 4 -9 15 -2 23 3 25 10 4z m1827 11 c0 -3 -14 -11 -30 -20 -17 -8 -28 -10
-24 -5 3 6 16 14 28 19 26 11 26 11 26 6z m-1356 -49 c8 4 8 3 0 -6 -9 -10
-19 -8 -48 11 -20 12 -36 26 -36 30 0 4 16 -4 36 -17 20 -14 41 -22 48 -18z
m295 2 c13 -11 21 -19 18 -19 -6 0 -78 47 -87 57 -9 11 45 -20 69 -38z m641
27 c0 -11 -19 -15 -25 -6 -3 5 1 10 9 10 9 0 16 -2 16 -4z m527 -28 c-3 -8 -6
-5 -6 6 -1 11 2 17 5 13 3 -3 4 -12 1 -19z m-590 -1 c0 -7 -9 -13 -19 -13 -18
0 -18 1 -2 13 10 7 18 13 19 13 1 0 2 -6 2 -13z m401 -2 c-2 -1 -13 -8 -25
-14 -19 -10 -22 -9 -17 4 3 8 10 12 15 9 5 -3 9 0 9 6 0 6 5 8 11 5 6 -4 9 -8
7 -10z m-1743 -45 c1 -22 -1 -42 -4 -44 -3 -2 -6 18 -7 45 -1 58 8 57 11 -1z
m845 -7 c0 -7 -39 17 -46 28 -3 6 5 3 20 -6 14 -10 26 -19 26 -22z m410 33 c0
-2 -7 -7 -16 -10 -8 -3 -12 -2 -9 4 6 10 25 14 25 6z m-730 -12 c0 -8 -19 -13
-24 -6 -3 5 1 9 9 9 8 0 15 -2 15 -3z m1150 -4 c0 -5 -4 -10 -10 -10 -5 0 -10
5 -10 10 0 6 5 10 10 10 6 0 10 -4 10 -10z m-480 -10 c0 -5 -7 -6 -17 -3 -12
5 -14 3 -8 -7 5 -9 4 -11 -4 -6 -6 4 -9 12 -6 17 8 12 35 12 35 -1z m450 6 c0
-2 -8 -10 -17 -17 -16 -13 -17 -12 -4 4 13 16 21 21 21 13z m329 -67 c9 -1 28
-2 44 -2 29 0 36 -14 11 -24 -31 -12 -104 42 -104 77 0 8 8 0 16 -17 9 -18 24
-34 33 -34z m-1101 26 c-3 -3 -9 2 -12 12 -6 14 -5 15 5 6 7 -7 10 -15 7 -18z
m238 16 c-7 -11 -66 -20 -66 -10 0 4 12 10 28 12 15 2 31 5 35 6 5 0 6 -3 3
-8z m483 -12 c-19 -12 -29 -11 -29 2 0 5 5 7 10 4 6 -3 10 -1 10 5 0 6 5 8 11
4 8 -4 7 -9 -2 -15z m492 -6 c-12 -20 -14 -14 -5 12 4 9 9 14 11 11 3 -2 0
-13 -6 -23z m-1506 7 c3 -5 2 -10 -4 -10 -5 0 -13 5 -16 10 -3 6 -2 10 4 10 5
0 13 -4 16 -10z m450 0 c4 -6 3 -10 -2 -9 -4 1 -10 0 -13 -1 -18 -7 -50 -5
-50 3 0 5 9 7 20 4 11 -3 20 -1 20 4 0 12 17 11 25 -1z m-410 -30 c3 -5 1 -10
-4 -10 -6 0 -11 5 -11 10 0 6 2 10 4 10 3 0 8 -4 11 -10z m909 -2 c-3 -4 -14
-8 -24 -8 -10 0 -22 -4 -25 -10 -3 -5 -12 -10 -18 -10 -7 0 0 8 16 18 28 19
60 25 51 10z m541 2 c3 -5 1 -10 -4 -10 -6 0 -11 5 -11 10 0 6 2 10 4 10 3 0
8 -4 11 -10z m-2078 -22 c-3 -8 -6 -5 -6 6 -1 11 2 17 5 13 3 -3 4 -12 1 -19z
m698 -27 c-6 -5 -25 10 -25 20 0 5 6 4 14 -3 8 -7 12 -15 11 -17z m755 20 c0
-5 -14 -14 -31 -20 -22 -8 -29 -7 -27 1 2 6 12 12 22 14 10 1 20 5 24 8 8 8
12 7 12 -3z m-1299 -57 c-12 -15 -21 -22 -21 -17 0 6 7 16 15 23 8 7 15 20 16
29 0 10 2 11 6 4 2 -7 -5 -25 -16 -39z m-138 16 c3 -11 1 -18 -4 -14 -5 3 -9
12 -9 20 0 20 7 17 13 -6z m727 0 c0 -5 -5 -10 -11 -10 -5 0 -7 5 -4 10 3 6 8
10 11 10 2 0 4 -4 4 -10z m615 -1 c-7 -11 -35 -12 -35 -1 0 4 9 8 20 9 11 1
18 -2 15 -8z m-591 -15 c3 -8 2 -12 -4 -9 -6 3 -10 10 -10 16 0 14 7 11 14 -7z
m532 1 c-11 -8 -27 -15 -35 -15 -10 0 -7 6 9 14 33 19 50 19 26 1z m-502 -21
c3 -8 2 -12 -4 -9 -6 3 -10 10 -10 16 0 14 7 11 14 -7z m442 -1 c-10 -10 -78
-14 -72 -4 4 5 15 8 26 6 11 -2 22 1 25 6 4 5 11 7 16 3 6 -3 8 -8 5 -11z
m-1116 -5 c0 -11 -78 -10 -84 0 -3 5 15 8 39 8 25 -1 45 -4 45 -8z m1027 -17
c0 -11 -5 -18 -9 -15 -4 3 -5 11 -1 19 7 21 12 19 10 -4z m-295 -18 c9 -8 23
-15 31 -17 7 -1 34 -19 58 -40 24 -21 35 -33 24 -25 -11 7 -30 22 -42 33 -13
11 -23 16 -23 12 0 -4 -20 7 -45 24 -25 17 -45 33 -45 36 0 6 20 -5 42 -23z
m388 -45 c0 -5 -11 -1 -25 8 -14 9 -25 18 -25 20 0 2 11 -2 25 -8 14 -6 25
-15 25 -20z m-1654 -13 c-21 -16 -32 -13 -21 4 3 6 14 11 23 11 15 -1 15 -2
-2 -15z m259 -30 c21 -17 24 -23 10 -18 -11 3 -22 10 -25 13 -3 4 -14 12 -25
18 -14 8 -16 11 -5 12 8 0 29 -11 45 -25z m1459 17 c3 -5 -1 -9 -9 -9 -8 0
-15 4 -15 9 0 4 4 8 9 8 6 0 12 -4 15 -8z m-289 -41 c-6 -5 -25 10 -25 20 0 5
6 4 14 -3 8 -7 12 -15 11 -17z m360 7 c5 4 5 1 1 -6 -6 -9 -11 -10 -20 -3 -7
6 -17 7 -21 3 -5 -4 -5 -1 -1 6 6 9 11 10 20 3 7 -6 17 -7 21 -3z m-285 -53
c0 -2 -13 4 -30 13 -16 9 -30 21 -30 25 0 5 14 -1 30 -13 17 -12 30 -23 30
-25z m324 29 c3 -8 2 -12 -4 -9 -6 3 -10 10 -10 16 0 14 7 11 14 -7z m41 -14
c3 -5 2 -10 -4 -10 -5 0 -13 5 -16 10 -3 6 -2 10 4 10 5 0 13 -4 16 -10z
m-272 -53 c4 3 7 1 7 -6 0 -7 -3 -11 -7 -9 -49 24 -63 33 -63 40 0 5 -5 6 -12
2 -7 -4 -8 -3 -4 4 5 9 17 5 40 -13 18 -14 36 -22 39 -18z m367 13 c0 -5 -2
-10 -4 -10 -3 0 -8 5 -11 10 -3 6 -1 10 4 10 6 0 11 -4 11 -10z m-1820 -36 c0
4 11 -1 25 -10 14 -9 25 -21 25 -27 0 -6 -10 -1 -23 11 -13 12 -26 20 -29 17
-3 -3 -11 3 -19 12 -13 16 -12 17 4 4 9 -7 17 -11 17 -7z m231 -1 c13 -16 12
-17 -3 -4 -10 7 -18 15 -18 17 0 8 8 3 21 -13z m1259 -4 c0 -6 -4 -7 -10 -4
-5 3 -10 11 -10 16 0 6 5 7 10 4 6 -3 10 -11 10 -16z m430 17 c0 -11 -19 -15
-25 -6 -3 5 1 10 9 10 9 0 16 -2 16 -4z m-387 -29 c4 3 7 1 7 -5 0 -14 -2 -14
-24 -6 -9 3 -16 11 -16 16 0 7 5 6 13 -1 8 -6 17 -8 20 -4z m-1698 -7 c-3 -4
-14 -10 -25 -13 -16 -4 -19 -2 -11 7 11 13 43 18 36 6z m416 -17 c13 -16 12
-17 -3 -4 -10 7 -18 15 -18 17 0 8 8 3 21 -13z m1803 8 c4 -5 -3 -7 -14 -4
-23 6 -26 13 -6 13 8 0 17 -4 20 -9z m106 -27 c0 -8 -41 3 -52 14 -10 10 -6
10 20 1 17 -6 32 -13 32 -15z m-2086 0 c3 -8 2 -12 -4 -9 -6 3 -10 10 -10 16
0 14 7 11 14 -7z m1556 -10 c10 -10 10 -14 2 -14 -7 0 -12 5 -12 10 0 6 -9 10
-19 10 -11 0 -23 5 -27 11 -9 15 36 1 56 -17z m-1166 8 c3 -5 -22 -7 -55 -5
-47 3 -59 1 -53 -9 6 -10 5 -11 -8 -1 -8 7 -19 9 -23 5 -5 -4 -5 -1 -1 6 8 14
132 17 140 4z m1791 -2 c4 -6 -10 -7 -37 -4 -57 8 -61 14 -10 14 22 0 44 -4
47 -10z m-1685 -41 c0 -5 -12 -3 -27 3 -44 19 -50 28 -10 16 21 -6 37 -15 37
-19z m1136 2 c1 -6 0 -7 -2 -2 -3 6 -11 8 -19 5 -7 -3 -16 -1 -20 5 -4 7 2 10
16 8 13 -2 24 -9 25 -16z m-1086 -33 c0 -12 -6 -9 -26 13 -19 22 -19 22 4 8
12 -8 22 -17 22 -21z m1186 10 c4 4 4 2 1 -4 -3 -6 -20 -9 -36 -6 -17 2 -28 8
-26 13 3 4 16 4 29 -1 13 -5 27 -6 32 -2z m-1695 -12 c0 -3 4 -20 9 -38 6 -18
6 -28 1 -22 -10 9 -24 80 -14 71 2 -3 5 -8 4 -11z m1726 -12 c-3 -3 -12 -4
-19 -1 -8 3 -5 6 6 6 11 1 17 -2 13 -5z m52 -11 c7 -1 18 -6 23 -11 6 -6 -2
-7 -23 -3 -18 4 -35 13 -37 20 -3 10 0 11 9 5 8 -5 20 -9 28 -11z m-1231 -18
c-3 -3 -9 2 -12 12 -6 14 -5 15 5 6 7 -7 10 -15 7 -18z m30 -30 c-3 -3 -9 2
-12 12 -6 14 -5 15 5 6 7 -7 10 -15 7 -18z m1340 10 c3 -3 -9 -5 -26 -5 -18 0
-32 5 -32 10 0 10 47 6 58 -5z m50 -12 c7 -7 9 -13 4 -13 -4 0 -16 6 -26 13
-14 10 -15 14 -4 14 7 0 19 -6 26 -14z m177 -19 c38 -2 74 -9 80 -15 7 -8 3
-9 -13 -4 -12 3 -53 7 -90 7 -37 0 -73 3 -79 5 -22 9 -14 22 10 17 12 -2 53
-7 92 -10z m-1799 -5 c2 -5 -23 -7 -56 -6 -67 3 -85 -8 -85 -51 0 -14 -5 -27
-11 -29 -19 -6 -2 60 19 78 22 18 123 24 133 8z m2109 -9 c4 -6 -7 -10 -24
-10 -17 0 -31 5 -31 10 0 6 11 10 24 10 14 0 28 -4 31 -10z m-2428 -67 c-2
-16 -4 -5 -4 22 0 28 2 40 4 28 2 -13 2 -35 0 -50z m2360 61 c-3 -3 -12 -4
-19 -1 -8 3 -5 6 6 6 11 1 17 -2 13 -5z m-1961 -36 l29 -32 -32 25 c-18 13
-32 27 -32 32 -1 12 4 8 35 -25z m2056 -55 c2 -28 0 -49 -4 -46 -5 2 -7 34 -7
71 2 71 6 61 11 -25z m-1849 50 c5 -26 4 -26 -9 -9 -7 10 -11 23 -8 27 8 14
11 11 17 -18z m29 -80 c6 -7 5 -14 -3 -19 -7 -4 -9 -3 -5 4 3 6 2 13 -4 17 -5
3 -9 16 -9 28 1 20 2 21 6 2 3 -11 9 -25 15 -32z m-188 11 c3 -8 2 -12 -4 -9
-6 3 -10 10 -10 16 0 14 7 11 14 -7z m-775 -69 l0 -20 -9 20 c-5 11 -9 29 -9
40 l0 20 9 -20 c5 -11 9 -29 9 -40z m488 30 c0 -8 -4 -15 -9 -15 -10 0 -11 14
-1 23 9 10 10 9 10 -8z m-184 -20 c4 -8 3 -16 -1 -19 -4 -3 -9 4 -9 15 -2 23
3 25 10 4z m492 -37 c3 -31 2 -37 -5 -23 -10 22 -13 82 -4 73 3 -4 7 -26 9
-50z m269 36 c6 -15 4 -15 -11 -3 -10 7 -20 15 -22 16 -2 2 3 3 11 3 9 0 19
-7 22 -16z m1710 0 c3 -8 2 -12 -4 -9 -6 3 -10 10 -10 16 0 14 7 11 14 -7z
m-2301 -21 c-3 -10 -10 -23 -14 -29 -5 -6 -7 -13 -4 -16 3 -3 -5 -13 -17 -24
l-23 -19 20 24 c11 13 19 26 19 30 -2 9 15 51 20 51 3 0 3 -8 -1 -17z m700
-61 c15 -16 16 -22 5 -28 -7 -4 -10 -3 -5 1 4 5 -16 31 -45 58 -41 39 -44 43
-13 20 22 -17 48 -40 58 -51z m1580 23 c-3 -9 -8 -14 -10 -11 -3 3 -2 9 2 15
9 16 15 13 8 -4z m-2719 -42 c9 -18 12 -33 7 -33 -5 0 -11 8 -14 18 -2 9 -8
26 -12 37 -11 28 0 16 19 -22z m282 6 c19 -22 19 -22 -3 -8 -13 8 -23 17 -23
21 0 12 6 9 26 -13z m501 -1 c-3 -8 -6 -5 -6 6 -1 11 2 17 5 13 3 -3 4 -12 1
-19z m1913 -18 c-12 -16 -24 -30 -26 -30 -3 0 4 14 16 30 12 17 24 30 26 30 3
0 -4 -13 -16 -30z m-2330 -12 c0 -4 -13 -8 -30 -8 -16 0 -30 4 -30 8 0 5 14 8
30 8 17 0 30 -3 30 -8z m569 -14 c15 -16 14 -16 -7 -2 -13 9 -32 14 -43 11
-10 -3 -19 0 -19 6 0 16 50 5 69 -15z m239 1 c-3 -3 -9 2 -12 12 -6 14 -5 15
5 6 7 -7 10 -15 7 -18z m-178 -38 c0 -4 -9 -3 -20 3 -11 6 -20 15 -20 20 0 6
9 5 20 -2 11 -7 20 -16 20 -21z m-915 -29 l30 -33 -40 35 c-22 19 -44 39 -50
44 -5 5 -1 4 10 -2 11 -6 33 -25 50 -44z m2545 2 c0 -5 -2 -10 -4 -10 -3 0 -8
5 -11 10 -3 6 -1 10 4 10 6 0 11 -4 11 -10z m-1580 -45 c14 -19 14 -19 -2 -6
-10 7 -18 18 -18 24 0 6 1 8 3 6 1 -2 9 -13 17 -24z m171 18 c0 -5 3 -19 5
-32 2 -14 2 -22 -2 -19 -3 3 -6 12 -8 20 -1 7 -5 19 -9 26 -5 7 -4 12 2 12 6
0 11 -3 12 -7z m-1015 -52 c1 -6 0 -7 -3 -1 -2 5 -9 8 -13 5 -5 -3 -11 -1 -14
4 -4 5 2 8 11 7 9 -2 18 -8 19 -15z m2314 9 c0 -5 -7 -7 -15 -4 -8 4 -15 8
-15 10 0 2 7 4 15 4 8 0 15 -4 15 -10z m-2215 -30 c3 -5 -4 -6 -15 -3 -11 3
-22 9 -25 13 -3 5 4 6 15 3 11 -3 22 -9 25 -13z m761 8 c4 -7 3 -8 -4 -4 -7 4
-12 2 -12 -5 0 -7 -3 -10 -6 -6 -6 5 3 27 11 27 2 0 7 -5 11 -12z m1394 7 c0
-9 -44 -23 -54 -17 -5 3 -1 9 10 13 23 9 44 11 44 4z m-1180 -9 c0 -3 -4 -8
-10 -11 -5 -3 -10 -1 -10 4 0 6 5 11 10 11 6 0 10 -2 10 -4z"/>
</g>
</svg>
